<svg xmlns="http://www.w3.org/2000/svg" width="260" height="75" fill="none" viewBox="0 0 260 75">
    <path fill="#FFCB05" fill-rule="evenodd" d="M7.553 73.963H6.346C2.328 63.578 0 51.313 0 38.166 0 24.008 2.697 10.866 7.305 0H8.36C4.687 11.14 2.57 24.24 2.57 38.272c0 12.95 1.809 25.133 4.982 35.697v-.006zM76.63.014c4.604 10.86 7.301 23.994 7.301 38.151 0 13.148-2.323 25.413-6.342 35.798h-1.207c3.17-10.564 4.982-22.733 4.982-35.682 0-14.026-2.12-27.127-5.792-38.272l1.058.005z" clip-rule="evenodd"/>
    <path fill="#A9A791" fill-rule="evenodd" d="M17.865 34.23c1.176.696 2.384 1.373 2.07 2.518.348 4.632.055 9.29-.87 13.842 1.07-1.881 1.926-3.431 3-5.308-.463-1.967-.298-5.363-.164-8.373-.09-1.51.725-2.935 1.8-4.158-.365-.107-.62-.107-.985-.217l-1.306 2.298c-.147-.87-.147-1.758 0-2.628h-.655c.083 1.008.01 2.024-.22 3.01-.25-.602-1.082-1.204-1.8-1.806l-.87.822z" clip-rule="evenodd"/>
    <path stroke="#231F20" stroke-miterlimit="2.61" stroke-width=".51" d="M17.865 34.23c1.176.696 2.384 1.373 2.07 2.518.348 4.632.055 9.29-.87 13.842 1.07-1.881 1.926-3.431 3-5.308-.463-1.967-.298-5.363-.164-8.373-.09-1.51.725-2.935 1.8-4.158-.365-.107-.62-.107-.985-.217l-1.306 2.298c-.147-.87-.147-1.758 0-2.628h-.655c.083 1.008.01 2.024-.22 3.01-.25-.602-1.082-1.204-1.8-1.806l-.87.822z"/>
    <path fill="#00A651" fill-rule="evenodd" d="M22.187 24.953c-3.53-1.248-4.89-.201-6.181.92-2.157-.35-3.063.134-3.114 1.18-1.518.28-1.389 1.016-1.357 1.893-.993.346-.82 2.723.917 2.947.226.368.534.679.899.908.365.228.779.369 1.207.41 1.389 2.172 2.777 2.085 4.166.968.863.456 1.243-.059 1.404-1.011.423-.673.965-.763 1.62-.264.702.35 1.11.35 1.227 0 .29.693 1.177.661 2.193.527-.176-1.623-.35-3.25-.526-4.882l-2.455-3.596z" clip-rule="evenodd"/>
    <path stroke="#231F20" stroke-miterlimit="2.61" stroke-width=".67" d="M22.187 24.953c-3.53-1.248-4.89-.201-6.181.92-2.157-.35-3.063.134-3.114 1.18-1.518.28-1.389 1.016-1.357 1.893-.993.346-.82 2.723.917 2.947.226.368.534.679.899.908.365.228.779.369 1.207.41 1.389 2.172 2.777 2.085 4.166.968.863.456 1.243-.059 1.404-1.011.423-.673.965-.763 1.62-.264.702.35 1.11.35 1.227 0 .29.693 1.177.661 2.193.527-.176-1.623-.35-3.25-.526-4.882l-2.455-3.596z"/>
    <path stroke="#231F20" stroke-miterlimit="2.61" stroke-width=".46" d="M13.276 29.434c.933.89 1.816.92 2.628-.311m-.514.752c.447.468 1.078.511 1.886.133l-1.886-.133zm5.35 1.542c.303.115.632.146.951.09.32-.056.618-.197.864-.409l-1.815.319zm-2.632-.712c.933.787 1.753.948 2.326-.264.198.112.417.182.643.204.226.023.455-.003.67-.074.903.787 1.663.787 2.326.31l-5.965-.176zm-3.11 1.581c.584.138 1.074.103 1.357-.306.254.251.582.413.936.46.354.048.714-.021 1.025-.197l-3.318.043zm-1.593-1.495c.353.294.806.44 1.264.407.457-.033.884-.242 1.192-.584l-2.456.177z"/>
    <path fill="#A9A791" fill-rule="evenodd" d="M66.118 34.23c-1.177.696-2.385 1.373-2.071 2.518-.346 4.632-.052 9.29.874 13.842-1.074-1.881-1.93-3.431-3-5.308.463-1.967.294-5.363.16-8.373.095-1.51-.725-2.935-1.8-4.158.365-.107.62-.107.985-.217l1.31 2.298c.143-.87.143-1.758 0-2.628h.65c-.08 1.008-.006 2.023.22 3.01.252-.602 1.083-1.204 1.8-1.806l.872.822z" clip-rule="evenodd"/>
    <path stroke="#231F20" stroke-miterlimit="2.61" stroke-width=".51" d="M66.118 34.23c-1.177.696-2.385 1.373-2.071 2.518-.346 4.632-.052 9.29.874 13.842-1.074-1.881-1.93-3.431-3-5.308.463-1.967.294-5.363.16-8.373.095-1.51-.725-2.935-1.8-4.158.365-.107.62-.107.985-.217l1.31 2.298c.143-.87.143-1.758 0-2.628h.65c-.08 1.008-.006 2.023.22 3.01.252-.602 1.083-1.204 1.8-1.806l.872.822z"/>
    <path fill="#00A651" fill-rule="evenodd" d="M61.795 24.953c3.53-1.248 4.895-.201 6.182.92 2.157-.35 3.063.134 3.114 1.18 1.518.28 1.392 1.016 1.36 1.893.993.346.82 2.723-.921 2.947-.226.368-.533.679-.899.908-.365.228-.778.369-1.207.41-1.389 2.172-2.777 2.085-4.165.968-.863.456-1.24-.059-1.4-1.011-.424-.673-.965-.763-1.624-.264-.702.35-1.11.35-1.228 0-.29.693-1.196.661-2.192.527l.525-4.882 2.455-3.596z" clip-rule="evenodd"/>
    <path stroke="#231F20" stroke-miterlimit="2.61" stroke-width=".67" d="M61.795 24.953c3.53-1.248 4.895-.201 6.182.92 2.157-.35 3.063.134 3.114 1.18 1.518.28 1.392 1.016 1.36 1.893.993.346.82 2.723-.921 2.947-.226.368-.533.679-.899.908-.365.228-.778.369-1.207.41-1.389 2.172-2.777 2.085-4.165.968-.863.456-1.24-.059-1.4-1.011-.424-.673-.965-.763-1.624-.264-.702.35-1.11.35-1.228 0-.29.693-1.196.661-2.192.527l.525-4.882 2.455-3.596z"/>
    <path stroke="#231F20" stroke-miterlimit="2.61" stroke-width=".46" d="M70.71 29.434c-.933.89-1.82.92-2.632-.311m.514.752c-.447.466-1.076.511-1.886.133l1.886-.133zm-5.35 1.542c-.666.173-1.266.173-1.811-.319l1.812.319zm2.632-.712c-.933.787-1.753.948-2.325-.264-.198.112-.417.182-.644.204-.226.023-.455-.003-.67-.074-.902.787-1.663.787-2.322.31l5.961-.176zm3.114 1.581c-.588.138-1.078.103-1.36-.306-.255.251-.583.413-.937.46-.354.048-.714-.021-1.025-.197l3.322.043zm1.589-1.495c-.353.294-.806.44-1.263.407-.458-.033-.885-.242-1.192-.584l2.455.177z"/>
    <path fill="#fff" fill-rule="evenodd" d="M31.568 5.378c9.119 1.968 11.649 1.968 20.787 0 2.887 3.475 7.275 4.226 12.072 3.117.208 4.493 1.898 7.302 4.518 9.442-12.782 8.53-11.652 22.82.334 38.586-3.352 3.388-5.393 7.862-5.758 12.622-7.334.468-12.186 2.223-18.198 4.855-2.973-.665-3.734-.665-6.71 0-6.013-2.632-10.865-4.387-18.199-4.855-.365-4.76-2.406-9.233-5.757-12.622 11.99-15.762 13.115-30.056.333-38.586 2.62-2.148 3.946-4.957 4.153-9.442 4.781 1.11 9.535.358 12.425-3.117z" clip-rule="evenodd"/>
    <path stroke="#231F20" stroke-miterlimit="2.61" stroke-width="1.33" d="M31.568 5.378c9.119 1.968 11.649 1.968 20.787 0 2.887 3.475 7.275 4.226 12.072 3.117.208 4.493 1.898 7.302 4.518 9.442-12.782 8.53-11.652 22.82.334 38.586-3.352 3.388-5.393 7.862-5.758 12.622-7.334.468-12.186 2.223-18.198 4.855-2.973-.665-3.734-.665-6.71 0-6.013-2.632-10.865-4.387-18.199-4.855-.365-4.76-2.406-9.233-5.757-12.622 11.99-15.762 13.115-30.056.333-38.586 2.62-2.148 3.946-4.957 4.153-9.442 4.781 1.11 9.535.358 12.425-3.117z"/>
    <path fill="#FFF200" fill-rule="evenodd" d="M58.438 41.997v5.32c0 9.86-7.409 17.925-16.472 17.925-9.064 0-16.473-8.066-16.473-17.926V28.037c5.49-2.168 10.982-3.788 16.473-3.788 5.49 0 10.981 1.625 16.472 3.792v13.956z" clip-rule="evenodd"/>
    <path stroke="#231F20" stroke-miterlimit="2.61" stroke-width=".97" d="M58.438 41.997v5.32c0 9.86-7.409 17.925-16.472 17.925-9.064 0-16.473-8.066-16.473-17.926V28.037c5.49-2.168 10.982-3.788 16.473-3.788 5.49 0 10.981 1.625 16.472 3.792v13.956z"/>
    <path fill="#BCBEC0" fill-rule="evenodd" d="M23.34 17.387c13.598-4.454 23.881-4.151 37.416.342l-3.008 4.985c-10.511-3.541-21.022-3.695-31.533-.181l-2.875-5.146z" clip-rule="evenodd"/>
    <path stroke="#231F20" stroke-miterlimit="2.61" stroke-width=".98" d="M23.34 17.387c13.598-4.454 23.881-4.151 37.416.342l-3.008 4.985c-10.511-3.541-21.022-3.695-31.533-.181l-2.875-5.146z"/>
    <path fill="#E6E7E8" fill-rule="evenodd" d="M53.587 15.589c1.8.427 3.575.952 5.318 1.573-1.743-.621-3.518-1.146-5.318-1.573zm-9.72-1.322c1.803.07 3.6.237 5.386.5-1.785-.263-3.583-.43-5.385-.5zm-9.84.519c1.776-.262 3.545-.433 5.307-.512-1.76.084-3.529.255-5.306.512zm-9.412 2.246c1.721-.574 3.451-1.058 5.177-1.455-1.718.397-3.448.881-5.17 1.455h-.007zm1.568 10.037l-4.314-9.95c.686-.283 1.369-.547 2.055-.787l5.06 5.064.949-6.661c1.177-.26 2.377-.504 3.628-.724l3.53 5.756 2.584-6.275c1.308-.053 2.615-.06 3.922-.02l2.267 6.271 3.922-5.724c1.243.232 2.455.476 3.624.743l1.498 6.634 4.562-4.851 2.208.83-3.922 9.93c-13.135-4.19-17.245-4.528-31.573-.236zm36.985-11.5l.706-1.822-1.588-.562-.683 1.668-1.463-.504c.216-.602.428-1.208.643-1.81l-1.706-.562c-.203.606-.405 1.211-.604 1.817 1.581.524 3.15 1.114 4.695 1.775zm-5.397.33l4.59 1.732.784-2.062c-1.546-.661-3.114-1.251-4.707-1.775-.2.705-.431 1.405-.667 2.105zm-4.769-3.592c.134-.539.263-1.082.392-1.62l-1.666-.323-.318 1.624c.533.099 1.067.209 1.592.32zm2.51.606c.153-.527.302-1.054.455-1.574l-1.486-.342c-.122.523-.24 1.047-.361 1.574h-.078c.494.09.984.212 1.47.342zm-7.06-1.385l-.392 2.18c2.381.393 4.68.865 6.801 1.408.212-.735.424-1.467.632-2.203-.487-.13-.977-.252-1.471-.37l-1.043-.204v-.032c-.526-.114-1.06-.22-1.57-.319l-.368-.074c-.85-.147-1.707-.276-2.573-.386h-.015zm.295-1.668l-.294 1.668c.862.11 1.72.242 2.572.394l-.913-.19c.121-.526.239-1.058.36-1.573l-1.725-.3zm-6.39 1.259c0-.626-.027-1.255-.038-1.88h-1.805c0 .633 0 1.266-.02 1.9.624-.02 1.248-.024 1.864-.02zm3.33.134L45.77 9.4l-1.788-.122v1.88c.575.019 1.145.05 1.71.095h-.004zm-8.396.07c.05.76.098 1.523.149 2.283 2.712-.208 5.436-.221 8.15-.04.031-.787.066-1.542.098-2.313-.565-.042-1.134-.074-1.706-.095v.052l-1.624-.06v-.031c-.62 0-1.243 0-1.867.02v.031l-1.424.04c-.588.02-1.18.062-1.773.114h-.003zM37.16 9.4l.13 1.924c.592-.052 1.176-.095 1.776-.126l-.059-1.9-1.847.102zm-9.738 3.726l.667 2.03c2.074-.512 4.27-.964 6.604-1.35-.106-.712-.208-1.428-.31-2.14-2.347.34-4.67.827-6.957 1.46h-.004zm-.655-1.995l.655 1.995c2.288-.633 4.613-1.12 6.961-1.46L34.09 9.62l-1.604.283.341 1.991-1.043.181-.408-1.99-1.604.298.463 2.034-1.267.264-.541-1.967-1.66.417zm-2.353 2.911l.686 1.87c-1.283.428-2.561.908-3.844 1.467l-.74-1.889c1.306-.535 2.61-1.018 3.91-1.448h-.012zm-4.664-.5l1.502-.601c.26.637.514 1.278.785 1.916l.945-.346c-.235-.638-.47-1.275-.698-1.92l1.44-.516.701 1.967c-1.307.43-2.614.913-3.922 1.448-.245-.648-.497-1.297-.753-1.947z" clip-rule="evenodd"/>
    <path stroke="#231F20" stroke-miterlimit="2.61" stroke-width=".97" d="M53.587 15.589c1.8.427 3.575.952 5.318 1.573-1.743-.621-3.518-1.146-5.318-1.573v0zm-9.72-1.322c1.803.07 3.6.237 5.386.5-1.785-.263-3.583-.43-5.385-.5v0zm-9.84.519c1.776-.262 3.545-.433 5.307-.512-1.76.084-3.529.255-5.306.512v0zm-9.412 2.246c1.721-.574 3.451-1.058 5.177-1.455-1.718.397-3.448.881-5.17 1.455h-.007zm1.568 10.037l-4.314-9.95c.686-.283 1.369-.547 2.055-.787l5.06 5.064.949-6.661c1.177-.26 2.377-.504 3.628-.724l3.53 5.756 2.584-6.275c1.308-.053 2.615-.06 3.922-.02l2.267 6.271 3.922-5.724c1.243.232 2.455.476 3.624.743l1.498 6.634 4.562-4.851 2.208.83-3.922 9.93c-13.135-4.19-17.245-4.528-31.573-.236v0zm36.985-11.5l.706-1.822-1.588-.562-.683 1.668-1.463-.504c.216-.602.428-1.208.643-1.81l-1.706-.562c-.203.606-.405 1.211-.604 1.817 1.581.524 3.15 1.114 4.695 1.775zm-5.397.33l4.59 1.732.784-2.062c-1.546-.661-3.114-1.251-4.707-1.775-.2.705-.431 1.405-.667 2.105zm-4.769-3.592c.134-.539.263-1.082.392-1.62l-1.666-.323-.318 1.624c.533.099 1.067.209 1.592.32v0zm2.51.606c.153-.527.302-1.054.455-1.574l-1.486-.342c-.122.523-.24 1.047-.361 1.574h-.078c.494.09.984.212 1.47.342v0zm-7.06-1.385l-.392 2.18c2.381.393 4.68.865 6.801 1.408.212-.735.424-1.467.632-2.203-.487-.13-.977-.252-1.471-.37l-1.043-.204v-.032c-.526-.114-1.06-.22-1.57-.319l-.368-.074c-.85-.147-1.707-.276-2.573-.386h-.015zm.295-1.668l-.294 1.668c.862.11 1.72.242 2.572.394l-.913-.19c.121-.526.239-1.058.36-1.573l-1.725-.3zm-6.39 1.259c0-.626-.027-1.255-.038-1.88h-1.805c0 .633 0 1.266-.02 1.9.624-.02 1.248-.024 1.864-.02zm3.33.134L45.77 9.4l-1.788-.122v1.88c.575.019 1.145.05 1.71.095h-.004zm-8.396.07c.05.76.098 1.523.149 2.283 2.712-.208 5.436-.221 8.15-.04.031-.787.066-1.542.098-2.313-.565-.042-1.134-.074-1.706-.095v.052l-1.624-.06v-.031c-.62 0-1.243 0-1.867.02v.031l-1.424.04c-.588.02-1.18.062-1.773.114h-.003zM37.16 9.4l.13 1.924c.592-.052 1.176-.095 1.776-.126l-.059-1.9-1.847.102zm-9.738 3.726l.667 2.03c2.074-.512 4.27-.964 6.604-1.35-.106-.712-.208-1.428-.31-2.14-2.347.34-4.67.827-6.957 1.46h-.004zm-.655-1.995l.655 1.995c2.288-.633 4.613-1.12 6.961-1.46L34.09 9.62l-1.604.283.341 1.991-1.043.181-.408-1.99-1.604.298.463 2.034-1.267.264-.541-1.967-1.66.417zm-2.353 2.911l.686 1.87c-1.283.428-2.561.908-3.844 1.467l-.74-1.889c1.306-.535 2.61-1.018 3.91-1.448h-.012zm-4.664-.5l1.502-.601c.26.637.514 1.278.785 1.916l.945-.346c-.235-.638-.47-1.275-.698-1.92l1.44-.516.701 1.967c-1.307.43-2.614.913-3.922 1.448-.245-.648-.497-1.297-.753-1.947z"/>
    <path stroke="#231F20" stroke-miterlimit="2.61" stroke-width=".65" d="M57.105 25.059l.604-1.378-.604 1.378zm-29.823-1.795l.415 1.18-.415-1.18zm4.945-1.42l.22 1.204-.22-1.204zm4.82-.806l.13 1.31-.13-1.31zm5.272-.288l.039 1.401-.04-1.4zm5.604.496l-.176 1.354.176-1.354zm5.295 1.003l-.424 1.42.424-1.42zm-27.839 3.018c11.186-4.426 22.395-3.986 33.02.268l-33.02-.268zm29.627-.964l-.392 1.066.392-1.066zm-4.745-1.224l-.263 1.118.263-1.117zm-5.122-.763l-.11 1.114.11-1.114zm-5.37-.145l.067 1.227-.067-1.227zm-4.883.44l.177 1.224-.177-1.224zm-4.835 1.118l.306 1.113-.306-1.113zm-4.166 1.396l.479 1.094-.479-1.094zM60.788 14.64l-.679 2.066.678-2.066zm-7.174-2.156l-.474 2.2.474-2.2zm-2.804-.567l-.392 2.208.392-2.208zm-7.71-.704l-.044 2.235.043-2.235zm-3.35-.023l.047 2.27-.047-2.27zm-7.452.838l.392 2.112-.392-2.113zm-2.746.59l.495 2.081-.495-2.081zm-7.087 2.112l.651 1.89-.65-1.89zm32.522 1.22l-.392 1 .392-1zm2.643.787l-.431 1.055.431-1.055zm-2.196 3.148l-.526 1.412.526-1.412zm.902-2.361l-.506 1.334.506-1.334zm-10.248.574l-.236 1.46.236-1.46zm.412-2.569l-.22 1.39.22-1.39zm1.51-.865l-.216 1.054.216-1.054zm-2.907-.335l-.055 1.106.055-1.106zm-8.122 3.77l.141 1.526-.141-1.527zm-.236-2.597l.122 1.416-.121-1.416zm1.24-1.137l.059.98-.06-.98zm-2.722.216l.11 1.082-.11-1.082zm-6.82 5.221l.392 1.464-.392-1.464zm-.699-2.49l.393 1.333-.393-1.334zm.946-1.484l.349 1.133-.35-1.133zm-2.805.799l.393 1.133-.393-1.133zm28.631 3.045c.534.142 1.067.295 1.596.453-.525-.166-1.059-.319-1.596-.453zm-9.275-1.597c.545.043 1.094.094 1.639.157-.541-.07-1.09-.134-1.636-.165l-.003.008zm-9.103.169c.54-.063 1.082-.114 1.623-.157-.537.035-1.078.086-1.62.15l-.003.007zm-8.515 1.802c.533-.165 1.067-.323 1.604-.468-.533.137-1.067.295-1.6.46l-.004.008zm26.583-1.72c.944.247 1.887.52 2.828.819-.938-.304-1.88-.58-2.824-.826l-.004.008zm-9.436-1.55c.973.067 1.961.162 2.914.284-.969-.142-1.938-.224-2.91-.291l-.004.007zm-9.354.292c.96-.126 1.92-.222 2.883-.288-.955.06-1.914.154-2.88.28l-.003.008zm-8.746 2.014c.914-.303 1.827-.578 2.745-.826-.918.236-1.831.523-2.745.826zm27.187-2.302c1.412.357 2.819.775 4.22 1.255-1.404-.482-2.81-.9-4.22-1.255zm-9.617-1.487c1.452.079 2.903.228 4.354.437-1.451-.209-2.902-.358-4.354-.437zm-9.636.445c1.43-.218 2.868-.365 4.314-.44-1.44.072-2.879.22-4.314.44zm-9.02 2.278c1.333-.48 2.677-.899 4.031-1.255-1.341.351-2.68.767-4.016 1.247l-.016.008z"/>
    <path fill="#231F20" fill-rule="evenodd" d="M61.066 18.248c-.11-.045-.229-.067-.348-.066-.119.002-.236.027-.346.074-.11.047-.208.116-.291.201-.083.086-.148.187-.192.299l-1.49 4.009.69.228c.11.04.2.079.279.114l1.925-4.721c-.069-.056-.145-.103-.227-.138zm-9.891-2.384c.233.037.442.164.583.355.14.19.2.43.166.664l-.64 3.631-.713-.145c-.361-.063-.726-.122-1.087-.177l.636-3.628c.049-.232.187-.436.384-.567.198-.13.438-.179.67-.133zm-9.731-.83c.236-.006.464.083.635.245.172.163.272.387.279.624v3.69h-1.832v-3.69c.007-.237.108-.462.28-.625.172-.163.402-.25.638-.245zm-9.476.88c.232-.044.473.004.67.135.196.13.333.334.382.566l.639 3.632-.722.11c-.36.063-.721.13-1.082.204l-.64-3.643c-.029-.232.033-.467.174-.655.14-.187.348-.312.58-.348zm-9.342 2.334c.11-.045.229-.068.348-.067.12.001.237.026.346.073.11.048.21.116.292.202.083.086.148.188.19.3l1.617 4.009-.69.228c-.11.04-.197.079-.28.114l-2.05-4.721c.07-.055.146-.102.227-.138z" clip-rule="evenodd"/>
    <path stroke="#231F20" stroke-miterlimit="2.61" stroke-width=".22" d="M61.066 18.248c-.11-.045-.229-.067-.348-.066-.119.002-.236.027-.346.074-.11.047-.208.116-.291.201-.083.086-.148.187-.192.299l-1.49 4.009.69.228c.11.04.2.079.279.114l1.925-4.721c-.069-.056-.145-.103-.227-.138zm-9.891-2.384c.233.037.442.164.583.355.14.19.2.43.166.664l-.64 3.631-.713-.145c-.361-.063-.726-.122-1.087-.177l.636-3.628c.049-.232.187-.436.384-.567.198-.13.438-.179.67-.133zm-9.731-.83c.236-.006.464.083.635.245.172.163.272.387.279.624v3.69h-1.832v-3.69c.007-.237.108-.462.28-.625.172-.163.402-.25.638-.245v0zm-9.476.88c.232-.044.473.004.67.135.196.13.333.334.382.566l.639 3.632-.722.11c-.36.063-.721.13-1.082.204l-.64-3.643c-.029-.232.033-.467.174-.655.14-.187.348-.312.58-.348v0zm-9.342 2.334c.11-.045.229-.068.348-.067.12.001.237.026.346.073.11.048.21.116.292.202.083.086.148.188.19.3l1.617 4.009-.69.228c-.11.04-.197.079-.28.114l-2.05-4.721c.07-.055.146-.102.227-.138z"/>
    <path fill="#BCBEC0" fill-rule="evenodd" d="M24.285 24.394l-.45-1.058c4.76-2.361 11.193-3.773 17.797-3.773 6.903.145 13.54 1.573 18.332 3.899l-.435 1.023c-4.629-2.24-11.147-3.667-17.897-3.742-6.334.008-12.664 1.467-17.347 3.651zm1.094 2.384c5.23-2.276 10.875-3.44 16.576-3.419 5.701.021 11.336 1.227 16.55 3.541l-.459 1.067c-5.193-2.228-10.778-3.39-16.425-3.42-5.656 0-11.312 1.452-15.79 3.325l-.452-1.094z" clip-rule="evenodd"/>
    <path stroke="#231F20" stroke-miterlimit="2.61" stroke-width=".97" d="M24.285 24.394l-.45-1.058c4.76-2.361 11.193-3.773 17.797-3.773 6.903.145 13.54 1.573 18.332 3.899l-.435 1.023c-4.629-2.24-11.147-3.667-17.897-3.742-6.334.008-12.664 1.467-17.347 3.651zm1.094 2.384c5.23-2.276 10.875-3.44 16.576-3.419 5.701.021 11.336 1.227 16.55 3.541l-.459 1.067c-5.193-2.228-10.778-3.39-16.425-3.42-5.656 0-11.312 1.452-15.79 3.325l-.452-1.094z"/>
    <path fill="#00A651" fill-rule="evenodd" d="M30.278 69.452c-3.169-1.547-5.663-3.703-7.122-6.213l2.694.291v-3.25c1.91 2.27 4.216 4.49 7.06 5.756l-2.632 3.416zm30.549-6.229c-1.49 2.573-4.067 4.773-7.338 6.33l-2.656-3.422c2.895-1.243 5.232-3.45 7.178-5.717v3.116l2.816-.307z" clip-rule="evenodd"/>
    <path stroke="#231F20" stroke-miterlimit="2.61" stroke-width=".97" d="M30.278 69.452c-3.169-1.547-5.663-3.703-7.122-6.213l2.694.291v-3.25c1.91 2.27 4.216 4.49 7.06 5.756l-2.632 3.416zm30.549-6.229c-1.49 2.573-4.067 4.773-7.338 6.33l-2.656-3.422c2.895-1.243 5.232-3.45 7.178-5.717v3.116l2.816-.307z"/>
    <path fill="#63908F" fill-rule="evenodd" d="M52.477 68.236l1.012 1.326 2.8-3.958-3.812 2.632zm-24.587-2.36l2.376 3.568 1.138-1.471-3.514-2.097z" clip-rule="evenodd"/>
    <path stroke="#231F20" stroke-miterlimit="2.61" stroke-width=".97" d="M52.477 68.236l1.012 1.326 2.8-3.958-3.812 2.632zm-24.587-2.36l2.376 3.568 1.138-1.471-3.514-2.097z"/>
    <path fill="#00A651" fill-rule="evenodd" d="M56.273 65.604c-2.71 3.147-8.107 5.3-14.3 5.3-6.032 0-11.307-2.043-14.08-5.056l2.275-2.88c2.64 2.506 6.95 4.142 11.806 4.142 5 0 9.412-1.739 12.036-4.37l2.263 2.864z" clip-rule="evenodd"/>
    <path stroke="#231F20" stroke-miterlimit="2.61" stroke-width=".97" d="M56.273 65.604c-2.71 3.147-8.107 5.3-14.3 5.3-6.032 0-11.307-2.043-14.08-5.056l2.275-2.88c2.64 2.506 6.95 4.142 11.806 4.142 5 0 9.412-1.739 12.036-4.37l2.263 2.864z"/>
    <path fill="#FFF200" fill-rule="evenodd" d="M46.456 67.607l.82-.142.227 1.094c.026.106.026.216 0 .322-.032.111-.093.212-.176.291-.086.088-.187.16-.298.213-.181.076-.37.13-.565.161-.13.024-.27.04-.427.055-.13.016-.262.016-.392 0-.112-.02-.219-.056-.318-.11-.086-.04-.16-.103-.216-.18-.066-.09-.114-.192-.141-.3l-.259-1.102.82-.141.231 1.121c.01.047.03.09.059.127.03.037.067.066.11.086.112.044.235.054.353.027.117-.016.227-.065.318-.141.032-.034.056-.076.068-.121.012-.046.013-.093.002-.14l-.216-1.12zm1.287-.288l1.035-.342.816.936V66.71l1.032-.343.69 1.763-.644.212-.525-1.341.027 1.507-.584.192-1.02-1.18.526 1.342-.647.212-.706-1.755zm-5.715 2.027l.785-.099c.018.078.063.147.125.197.115.08.255.11.392.087.096-.004.189-.031.271-.08.025-.013.047-.034.062-.059.015-.024.023-.053.024-.082-.005-.028-.018-.054-.037-.076-.018-.022-.042-.04-.069-.05-.14-.045-.287-.07-.435-.075-.269-.008-.535-.064-.784-.165-.072-.028-.134-.074-.182-.134-.047-.06-.078-.132-.089-.208-.005-.102.03-.203.098-.28.093-.105.212-.184.345-.228.212-.072.432-.115.655-.125.264-.033.532-.007.785.074.088.03.168.081.23.15.064.069.109.153.13.244l-.784.09c-.012-.037-.03-.072-.056-.102-.026-.03-.058-.054-.093-.07-.09-.035-.187-.047-.282-.036-.076.001-.15.022-.216.059-.02.01-.037.026-.048.045-.011.02-.016.042-.015.065.004.017.012.033.024.046.012.013.026.023.043.029.092.033.189.049.286.047.264.014.526.05.785.106.133.029.256.09.36.177.076.07.123.165.134.268.005.061-.003.124-.022.183-.02.058-.051.113-.092.159-.103.122-.24.212-.392.26-.206.075-.421.119-.64.13-.328.054-.664.016-.972-.11-.082-.046-.154-.109-.21-.184-.056-.075-.096-.162-.116-.253zM37.26 68.09l-.267.991.2.043c.122.034.247.05.373.047.077-.01.148-.044.204-.098.073-.085.123-.188.145-.299.028-.069.04-.143.035-.218-.005-.074-.026-.146-.062-.21-.116-.113-.264-.187-.424-.21l-.204-.046zm-.702-.598l1.208.275c.195.039.382.106.557.2.123.069.23.163.314.276.069.101.113.217.13.338.01.125 0 .25-.032.37-.036.16-.112.307-.22.429-.094.094-.21.164-.337.205-.126.045-.259.065-.392.059-.168-.006-.334-.025-.498-.06l-1.208-.279.478-1.813zm-1.922.586l.024-.728-.569.503.545.225zm-.023.436l-.867-.362-.259.233-.784-.327 1.76-1.318.832.346.094 2.093-.784-.334.008-.33z" clip-rule="evenodd"/>
    <path fill="#00AEEF" fill-rule="evenodd" d="M28.964 58.404H55.25L41.671 25.03 28.965 58.404z" clip-rule="evenodd"/>
    <path stroke="#231F20" stroke-miterlimit="2.61" stroke-width=".83" d="M28.964 58.404H55.25L41.671 25.03 28.965 58.404z"/>
    <path fill="#fff" fill-rule="evenodd" d="M41.26 36.819v-.394h.172c.08-.017.15-.06.2-.123.052-.063.08-.142.08-.223 0-.08-.028-.16-.08-.223-.05-.063-.12-.106-.2-.123h-.25c-.084.009-.16.05-.213.115-.053.065-.078.148-.07.231-.004.027-.004.055 0 .083h-.49v-.358h-.251v-.709h.25v-.354h.49c-.003.026-.003.053 0 .08-.007.082.018.165.071.23.053.065.13.106.212.115h.236c.08-.015.152-.057.204-.12.052-.063.08-.142.08-.224 0-.082-.028-.16-.08-.224-.052-.063-.124-.105-.204-.12h-.173v-.394h.357v-.248h.714v.248h.353v.394h-.173c-.08.015-.152.057-.204.12-.052.063-.081.142-.081.224 0 .082.029.161.08.224.053.063.125.105.205.12h.236c.083-.009.16-.05.213-.114.053-.065.08-.148.073-.232.002-.026.002-.053 0-.079h.517v.355h.248v.708h-.247v.358h-.51c.002-.028.002-.055 0-.083.006-.084-.02-.167-.073-.231-.054-.065-.13-.106-.214-.115h-.235c-.079.017-.15.06-.2.123-.051.063-.079.142-.079.223 0 .081.028.16.079.223.05.063.121.106.2.123h.173v.394h-.353v.252h-.714v-.252h-.35z" clip-rule="evenodd"/>
    <path stroke="#231F20" stroke-miterlimit="2.61" stroke-width=".49" d="M41.26 36.819v-.394h.172c.08-.017.15-.06.2-.123.052-.063.08-.142.08-.223 0-.08-.028-.16-.08-.223-.05-.063-.12-.106-.2-.123h-.25c-.084.009-.16.05-.213.115-.053.065-.078.148-.07.231-.004.027-.004.055 0 .083h-.49v-.358h-.251v-.709h.25v-.354h.49c-.003.026-.003.053 0 .08-.007.082.018.165.071.23.053.065.13.106.212.115h.236c.08-.015.152-.057.204-.12.052-.063.08-.142.08-.224 0-.082-.028-.16-.08-.224-.052-.063-.124-.105-.204-.12h-.173v-.394h.357v-.248h.714v.248h.353v.394h-.173c-.08.015-.152.057-.204.12-.052.063-.081.142-.081.224 0 .082.029.161.08.224.053.063.125.105.205.12h.236c.083-.009.16-.05.213-.114.053-.065.08-.148.073-.232.002-.026.002-.053 0-.079h.517v.355h.248v.708h-.247v.358h-.51c.002-.028.002-.055 0-.083.006-.084-.02-.167-.073-.231-.054-.065-.13-.106-.214-.115h-.235c-.079.017-.15.06-.2.123-.051.063-.079.142-.079.223 0 .081.028.16.079.223.05.063.121.106.2.123h.173v.394h-.353v.252h-.714v-.252h-.35z"/>
    <path fill="#fff" fill-rule="evenodd" d="M40.146 38.62l1.094-1.805h1.463l1.094 1.806.902 10.473h-5.451l.898-10.473z" clip-rule="evenodd"/>
    <path stroke="#231F20" stroke-miterlimit="2.61" stroke-width=".49" d="M40.146 38.62l1.094-1.805h1.463l1.094 1.806.902 10.473h-5.451l.898-10.473z"/>
    <path fill="#fff" fill-rule="evenodd" d="M43.464 38.991l.694 9.56h-4.373l.694-9.56h2.985zm-2.84-.563l.71-1.18h1.279l.71 1.18h-2.699z" clip-rule="evenodd"/>
    <path stroke="#231F20" stroke-miterlimit="2.61" stroke-width=".49" d="M43.464 38.991l.694 9.56h-4.373l.694-9.56h2.985zm-2.84-.563l.71-1.18h1.279l.71 1.18h-2.699z"/>
    <path fill="#fff" fill-rule="evenodd" d="M38.706 49.819h6.53l-.537-.791h-5.451l-.541.79z" clip-rule="evenodd"/>
    <path stroke="#231F20" stroke-miterlimit="2.61" stroke-width=".49" d="M38.706 49.819h6.53l-.537-.791h-5.451l-.541.79z"/>
    <path fill="#fff" d="M45.24 49.818h-6.534v2.947h6.535v-2.947z"/>
    <path stroke="#231F20" stroke-miterlimit="2.61" stroke-width=".49" d="M45.24 49.818h-6.534v2.947h6.535v-2.947z"/>
    <path fill="#fff" d="M45.97 52.766h-7.962v2.093h7.962v-2.093z"/>
    <path stroke="#231F20" stroke-miterlimit="2.61" stroke-width=".49" d="M45.97 52.766h-7.962v2.093h7.962v-2.093z"/>
    <path stroke="#231F20" stroke-miterlimit="2.61" stroke-width=".16" d="M42.436 39.656h-.89v.35h.89v-.35z"/>
    <path fill="#fff" fill-rule="evenodd" d="M42.687 41.958v.224c.008.097-.005.195-.037.287-.032.092-.083.176-.15.247-.065.072-.145.129-.234.168-.09.039-.186.059-.283.059-.097 0-.193-.02-.282-.06-.09-.038-.17-.095-.235-.167-.066-.071-.117-.155-.15-.247-.031-.092-.044-.19-.037-.287v-.822c.222-.097.46-.151.702-.162.243.01.483.065.706.162v.598z" clip-rule="evenodd"/>
    <path stroke="#231F20" stroke-miterlimit="2.61" stroke-width=".04" d="M42.687 41.958v.224c.008.097-.005.195-.037.287-.032.092-.083.176-.15.247-.065.072-.145.129-.234.168-.09.039-.186.059-.283.059-.097 0-.193-.02-.282-.06-.09-.038-.17-.095-.235-.167-.066-.071-.117-.155-.15-.247-.031-.092-.044-.19-.037-.287v-.822c.222-.097.46-.151.702-.162.243.01.483.065.706.162v.598z"/>
    <path fill="#231F20" fill-rule="evenodd" d="M42.185 42.276v-.032c.081-.026.167-.034.251-.023.084.02.172.013.251-.02v.04c-.08.026-.167.026-.247 0-.086-.01-.174.002-.255.035zm-.039.106v-.035c.085-.031.177-.042.267-.032.086.026.177.026.263 0 .001.016.001.032 0 .047-.084.02-.172.02-.255 0-.092-.017-.187-.01-.275.02zm-.04.118v-.047c.094-.034.193-.046.291-.035.084.02.171.02.255 0 0 .02 0 .039-.02.059-.078.01-.157.01-.235 0-.096-.02-.196-.014-.29.015v.008zm-.325-.224v-.032c-.08-.026-.166-.034-.25-.023-.084.021-.172.014-.252-.02v.04c.082.025.17.025.251 0 .086-.01.172.003.251.035zm.036.106v-.035c-.086-.031-.177-.042-.267-.032-.086.026-.177.026-.263 0v.047c.084.02.171.02.255 0 .092-.017.186-.01.275.02zm.043.118v-.047c-.094-.035-.195-.047-.294-.035-.083.02-.169.02-.251 0-.002.02-.002.039 0 .059.076.01.154.01.231 0 .104-.023.212-.018.314.015v.008z" clip-rule="evenodd"/>
    <path stroke="#231F20" stroke-miterlimit="2.61" stroke-width=".03" d="M42.185 42.276v-.032c.081-.026.167-.034.251-.023.084.02.172.013.251-.02v.04c-.08.026-.167.026-.247 0-.086-.01-.174.002-.255.035v0zm-.039.106v-.035c.085-.031.177-.042.267-.032.086.026.177.026.263 0 .001.016.001.032 0 .047-.084.02-.172.02-.255 0-.092-.017-.187-.01-.275.02v0zm-.04.118v-.047c.094-.034.193-.046.291-.035.084.02.171.02.255 0 0 .02 0 .039-.02.059-.078.01-.157.01-.235 0-.096-.02-.196-.014-.29.015v.008zm-.325-.224v-.032c-.08-.026-.166-.034-.25-.023-.084.021-.172.014-.252-.02v.04c.082.025.17.025.251 0 .086-.01.172.003.251.035v0zm.036.106v-.035c-.086-.031-.177-.042-.267-.032-.086.026-.177.026-.263 0v.047c.084.02.171.02.255 0 .092-.017.186-.01.275.02zm.043.118v-.047c-.094-.035-.195-.047-.294-.035-.083.02-.169.02-.251 0-.002.02-.002.039 0 .059.076.01.154.01.231 0 .104-.023.212-.018.314.015v.008z"/>
    <path fill="#fff" fill-rule="evenodd" d="M41.228 40.868c.517-.191 1.084-.191 1.6 0l-.129.212c-.437-.15-.912-.15-1.35 0l-.12-.212z" clip-rule="evenodd"/>
    <path stroke="#231F20" stroke-miterlimit="2.61" stroke-width=".04" d="M41.228 40.868c.517-.191 1.084-.191 1.6 0l-.129.212c-.437-.15-.912-.15-1.35 0l-.12-.212z"/>
    <path fill="#fff" fill-rule="evenodd" d="M42.48 40.828c.077.017.153.04.227.067-.074-.028-.15-.05-.228-.067zm-.416-.059c.076.004.152.012.227.024-.075-.012-.151-.02-.227-.024zm-.424.024l.228-.024-.228.024zm-.392.094l.22-.059-.22.06zm.067.43l-.185-.426.087-.031.215.216.043-.287.153-.028.153.244.11-.267h.169l.094.267.169-.244.156.032.063.283.196-.208.094.035-.168.425c-.214-.092-.444-.141-.677-.144-.233-.003-.464.04-.68.128l.008.004zm1.568-.493c0-.023.02-.05.032-.074l-.07-.024-.028.07-.063-.023.027-.075-.074-.027-.024.079.2.074zm-.231 0l.196.075.035-.09-.2-.075-.031.09zm-.204-.153v-.07h-.075v.07h.075zm.11.027c-.002-.023-.002-.047 0-.07h-.067c.002.022.002.044 0 .066l.067.004zm-.302-.059c-.002.03-.002.06 0 .09.102.02.2.04.29.064.008-.032.017-.064.028-.095h-.177l-.141-.059zm0-.07v.07h.11-.04v-.067l-.07-.003zm-.275.05v-.078h-.078v.079h.078zm.145 0v-.082h-.074v.083h.075zm-.36 0v.1c.116-.009.233-.009.349 0-.002-.034-.002-.066 0-.1h-.361.012zm0-.082v.083h.074v-.083h-.074zm-.416.161l.027.087c.087-.024.18-.04.283-.059v-.09c-.101.022-.2.051-.298.086l-.012-.024zm-.032-.086c0 .031.02.059.032.086.097-.026.195-.047.294-.063v-.086h-.067v.087h-.043l-.02-.087h-.066v.087h-.055l-.023-.083-.051.059zm-.097.126l.027.078-.165.063-.031-.078.169-.063zm-.2 0l.062-.028.035.083h.04l-.032-.083.063-.02.032.083-.17.063-.03-.098z" clip-rule="evenodd"/>
    <path stroke="#231F20" stroke-miterlimit="2.61" stroke-width=".04" d="M42.48 40.828c.077.017.153.04.227.067-.074-.028-.15-.05-.228-.067v0zm-.416-.059c.076.004.152.012.227.024-.075-.012-.151-.02-.227-.024v0zm-.424.024l.228-.024-.228.024zm-.392.094l.22-.059-.22.06zm.067.43l-.185-.426.087-.031.215.216.043-.287.153-.028.153.244.11-.267h.169l.094.267.169-.244.156.032.063.283.196-.208.094.035-.168.425c-.214-.092-.444-.141-.677-.144-.233-.003-.464.04-.68.128l.008.004zm1.568-.493c0-.023.02-.05.032-.074l-.07-.024-.028.07-.063-.023.027-.075-.074-.027-.024.079.2.074zm-.231 0l.196.075.035-.09-.2-.075-.031.09zm-.204-.153v-.07h-.075v.07h.075zm.11.027c-.002-.023-.002-.047 0-.07h-.067c.002.022.002.044 0 .066l.067.004zm-.302-.059c-.002.03-.002.06 0 .09.102.02.2.04.29.064.008-.032.017-.064.028-.095h-.177l-.141-.059zm0-.07v.07h.11-.04v-.067l-.07-.003zm-.275.05v-.078h-.078v.079h.078zm.145 0v-.082h-.074v.083h.075zm-.36 0v.1c.116-.009.233-.009.349 0-.002-.034-.002-.066 0-.1h-.361.012zm0-.082v.083h.074v-.083h-.074zm-.416.161l.027.087c.087-.024.18-.04.283-.059v-.09c-.101.022-.2.051-.298.086l-.012-.024zm-.032-.086c0 .031.02.059.032.086.097-.026.195-.047.294-.063v-.086h-.067v.087h-.043l-.02-.087h-.066v.087h-.055l-.023-.083-.051.059zm-.097.126l.027.078-.165.063-.031-.078.169-.063zm-.2 0l.062-.028.035.083h.04l-.032-.083.063-.02.032.083-.17.063-.03-.098z"/>
    <path stroke="#231F20" stroke-miterlimit="2.61" stroke-width=".03" d="M42.629 41.233l.027-.058-.027.059zm-1.275-.078v.051-.051zm.196-.06v.052-.051zm.196-.035v.055-.055zm.22-.011v.059-.06zm.239.02v.058-.059zm.235.058l-.02.06.02-.06zm-1.196.13c.452-.187.96-.187 1.412 0h-1.412zm1.267-.055v.047-.047zm-.184-.051v.047-.047zm-.208-.032v.048-.048zm-.228-.007v.055-.055zm-.212.02v.054-.055zm-.215.054v.047-.047zm-.189.047l.02.048-.02-.047zm1.49-.448l-.027.09.028-.09zm-.305-.09l-.02.094.02-.095zm-.122-.024v.094-.094zm-.788.004v.09-.09zm-.118.023l.02.09-.02-.09zm-.306.09l.032.084-.032-.083zm1.393.056v.043-.043zm.113.032l-.02.047.02-.047zm-.094.133l-.023.063.023-.063zm.04-.102l-.024.059.023-.059zm-.44.028v.063-.063zm0-.11v.058-.059zm.067-.036v.043-.043zm-.47.051v.06-.06zm-.354.177v.06-.06zm-.031-.11v.059-.059zm.04-.063v.051-.051zm-.118.035v.048-.048zm1.223.13h.067-.067zm-.784-.067h.066-.066zm-.365.075l.067-.02-.067.02zm1.133-.075l.122.036-.122-.036zm-.392-.063c.04-.003.081-.003.122 0-.035-.002-.07-.002-.106 0h-.016zm-.392 0c.04-.003.081-.003.122 0-.039 0-.077.005-.114.012l-.008-.012zm-.392.087l.117-.035-.117.035zm1.176-.098l.18.05-.18-.05zm-.411-.063c.061-.004.123-.004.184 0-.058 0-.115.004-.173.011l-.011-.011zm-.393 0l.185-.02-.185.02zm-.392.098l.173-.055-.173.055z"/>
    <path fill="#231F20" fill-rule="evenodd" d="M42.805 40.919l-.014-.003c-.005 0-.01 0-.014.003-.004.002-.008.004-.011.008-.004.003-.006.007-.008.012l-.063.173h.027l.083-.205v.012zm-.42-.102c.01.002.019.007.024.015.006.008.009.018.008.028l-.028.157h-.078l.027-.153c0-.006.002-.011.005-.016.003-.005.006-.01.01-.012.005-.004.01-.006.016-.007.005-.002.01-.002.016 0v-.012zm-.416-.036c.01 0 .02.004.027.01.007.007.012.016.013.026v.157h-.079v-.157c.003-.008.008-.014.014-.018.006-.004.014-.006.022-.006l.003-.012zm-.392.04c.01-.003.02-.001.03.004.008.005.015.013.017.023l.028.157h-.079l-.027-.153c.002-.005.006-.01.011-.013.005-.004.01-.006.016-.007l.004-.011zm-.392.098l.014-.003c.005 0 .01 0 .014.003.004.002.008.004.011.008.004.003.007.007.008.012l.07.173h-.03l-.087-.205v.012z" clip-rule="evenodd"/>
    <path stroke="#231F20" stroke-miterlimit="2.61" stroke-width=".22" d="M42.805 40.919l-.014-.003c-.005 0-.01 0-.014.003-.004.002-.008.004-.011.008-.004.003-.006.007-.008.012l-.063.173h.027l.083-.205v.012zm-.42-.102c.01.002.019.007.024.015.006.008.009.018.008.028l-.028.157h-.078l.027-.153c0-.006.002-.011.005-.016.003-.005.006-.01.01-.012.005-.004.01-.006.016-.007.005-.002.01-.002.016 0v-.012zm-.416-.036c.01 0 .02.004.027.01.007.007.012.016.013.026v.157h-.079v-.157c.003-.008.008-.014.014-.018.006-.004.014-.006.022-.006l.003-.012zm-.392.04c.01-.003.02-.001.03.004.008.005.015.013.017.023l.028.157h-.079l-.027-.153c.002-.005.006-.01.011-.013.005-.004.01-.006.016-.007l.004-.011zm-.392.098l.014-.003c.005 0 .01 0 .014.003.004.002.008.004.011.008.004.003.007.007.008.012l.07.173h-.03l-.087-.205v.012z"/>
    <path fill="#fff" fill-rule="evenodd" d="M41.224 41.202l-.02-.043c.24-.108.5-.163.762-.161.27.001.536.057.784.165l-.02.043c-.24-.105-.501-.158-.764-.157-.255 0-.508.052-.742.153zm.047.102c.22-.093.456-.142.695-.145.248 0 .494.052.721.153l-.02.044c-.221-.096-.46-.146-.701-.146-.232.004-.46.053-.675.142l-.02-.047z" clip-rule="evenodd"/>
    <path stroke="#231F20" stroke-miterlimit="2.61" stroke-width=".04" d="M41.224 41.202l-.02-.043c.24-.108.5-.163.762-.161.27.001.536.057.784.165l-.02.043c-.24-.105-.501-.158-.764-.157-.255 0-.508.052-.742.153v0zm.047.102c.22-.093.456-.142.695-.145.248 0 .494.052.721.153l-.02.044c-.221-.096-.46-.146-.701-.146-.232.004-.46.053-.675.142l-.02-.047z"/>
    <path fill="#fff" fill-rule="evenodd" d="M41.28 41.36h1.407l-.706 1.577-.702-1.578z" clip-rule="evenodd"/>
    <path stroke="#231F20" stroke-miterlimit="2.61" stroke-width=".04" d="M41.28 41.36h1.407l-.706 1.577-.702-1.578z"/>
    <path fill="#fff" fill-rule="evenodd" d="M41.966 41.588h-.024v-.028h.075v.028H41.966z" clip-rule="evenodd"/>
    <path stroke="#231F20" stroke-miterlimit="2.61" stroke-width=".02" d="M41.966 41.588h-.024v-.028h.075v.028H41.966z"/>
    <path fill="#fff" fill-rule="evenodd" d="M41.903 41.666l.047-.079h.063l.047.08.039.444h-.235l.039-.445z" clip-rule="evenodd"/>
    <path stroke="#231F20" stroke-miterlimit="2.61" stroke-width=".02" d="M41.903 41.666l.047-.079h.063l.047.08.039.444h-.235l.039-.445z"/>
    <path fill="#fff" fill-rule="evenodd" d="M42.044 41.682l.032.394h-.189l.032-.394h.125zm-.121-.023l.03-.052h.056l.031.052h-.117z" clip-rule="evenodd"/>
    <path stroke="#231F20" stroke-miterlimit="2.61" stroke-width=".02" d="M42.044 41.682l.032.394h-.189l.032-.394h.125zm-.121-.023l.03-.052h.056l.031.052h-.117z"/>
    <path fill="#fff" fill-rule="evenodd" d="M41.844 42.142h.279l-.024-.031h-.235l-.02.031z" clip-rule="evenodd"/>
    <path stroke="#231F20" stroke-miterlimit="2.61" stroke-width=".02" d="M41.844 42.142h.279l-.024-.031h-.235l-.02.031z"/>
    <path fill="#fff" d="M42.119 42.143h-.279v.126h.279v-.126z"/>
    <path stroke="#231F20" stroke-miterlimit="2.61" stroke-width=".02" d="M42.119 42.143h-.279v.126h.279v-.126z"/>
    <path fill="#fff" d="M42.154 42.268h-.341v.09h.34v-.09z"/>
    <path stroke="#231F20" stroke-miterlimit="2.61" stroke-width=".02" d="M42.154 42.268h-.341v.09h.34v-.09z"/>
    <path fill="#00AEEF" fill-rule="evenodd" d="M48.005 40.667l-.317-.728c1.718-.55 2.702-.598 4.867-.31 2.828.452 4.444.204 5.844-.438 0 .32-.024.634-.043.945-1.389.602-3.005.716-5.8.263-2.166-.39-2.833-.267-4.55.268zm.836 2.038l-.314-.826c.54-.188 1.104-.293 1.675-.311.392 0 .56.098 1.855.271 2.95.476 4.848.394 6.314-.232-.05.354.067.614 0 .964-1.431.52-3.482.547-6.31.095-1.294-.236-1.436-.244-1.757-.22-.498.008-.992.095-1.463.259zM49.9 45.27l-.361-.948c.401-.11.816-.162 1.231-.154.312.005.623.033.93.083 2.694.433 5.252.484 6.707.083-.137.448.165.488 0 .924-1.671.173-2.608.343-4.263.209-1.405-.114-2.883-.614-4.244-.197zm-14.174-4.446l.274-.83c-1.714-.55-2.502-.653-4.667-.366-2.824.453-4.38.205-5.777-.437 0 .32.023.634.043.945 1.388.602 2.938.716 5.734.263 2.165-.39 2.679-.13 4.393.425zm-.785 1.944l.275-.716c-1.832-.586-1.083-.52-3.385-.213-2.95.476-4.765.394-6.236-.232.055.354-.047.65.024 1 1.431.519 3.384.511 6.212.059 1.679-.307 1.541-.406 3.11.102zm-1.008 2.416l.44-.976c-.423-.124-.864-.172-1.303-.142-.505-.078-1.757.28-2.306.35-2.698.433-3.773.166-5.228-.24.137.453-.153.567 0 1 1.155.279 2.344.385 3.53.314.623-.007 1.244-.058 1.86-.153.646-.145 1.3-.253 1.96-.323.357-.018.714.04 1.047.17z" clip-rule="evenodd"/>
    <path stroke="#231F20" stroke-miterlimit="2.61" stroke-width=".65" d="M48.005 40.667l-.317-.728c1.718-.55 2.702-.598 4.867-.31 2.828.452 4.444.204 5.844-.438 0 .32-.024.634-.043.945-1.389.602-3.005.716-5.8.263-2.166-.39-2.833-.267-4.55.268zm.836 2.038l-.314-.826c.54-.188 1.104-.293 1.675-.311.392 0 .56.098 1.855.271 2.95.476 4.848.394 6.314-.232-.05.354.067.614 0 .964-1.431.52-3.482.547-6.31.095-1.294-.236-1.436-.244-1.757-.22-.498.008-.992.095-1.463.259v0zM49.9 45.27l-.361-.948c.401-.11.816-.162 1.231-.154.312.005.623.033.93.083 2.694.433 5.252.484 6.707.083-.137.448.165.488 0 .924-1.671.173-2.608.343-4.263.209-1.405-.114-2.883-.614-4.244-.197v0zm-14.174-4.446l.274-.83c-1.714-.55-2.502-.653-4.667-.366-2.824.453-4.38.205-5.777-.437 0 .32.023.634.043.945 1.388.602 2.938.716 5.734.263 2.165-.39 2.679-.13 4.393.425v0zm-.785 1.944l.275-.716c-1.832-.586-1.083-.52-3.385-.213-2.95.476-4.765.394-6.236-.232.055.354-.047.65.024 1 1.431.519 3.384.511 6.212.059 1.679-.307 1.541-.406 3.11.102v0zm-1.008 2.416l.44-.976c-.423-.124-.864-.172-1.303-.142-.505-.078-1.757.28-2.306.35-2.698.433-3.773.166-5.228-.24.137.453-.153.567 0 1 1.155.279 2.344.385 3.53.314.623-.007 1.244-.058 1.86-.153.646-.145 1.3-.253 1.96-.323.357-.018.714.04 1.047.17z"/>
    <path fill="#00AEEF" fill-rule="evenodd" d="M33 47.93l.33-.92c-.271-.087-.326 0-.393-.044-.576-.197-1.631-.209-2.859-.094-.69.063-1.428.208-2.13.26-.79.086-1.59.016-2.353-.21.133.453-.098.512.07.945 1.036.199 2.098.215 3.138.047.938-.094 1.761-.362 2.612-.334.506.027 1.024.275 1.585.35z" clip-rule="evenodd"/>
    <path stroke="#231F20" stroke-miterlimit="2.61" stroke-width=".65" d="M33 47.93l.33-.92c-.271-.087-.326 0-.393-.044-.576-.197-1.631-.209-2.859-.094-.69.063-1.428.208-2.13.26-.79.086-1.59.016-2.353-.21.133.453-.098.512.07.945 1.036.199 2.098.215 3.138.047.938-.094 1.761-.362 2.612-.334.506.027 1.024.275 1.585.35z"/>
    <path fill="#00AEEF" fill-rule="evenodd" d="M58.344 46.962v.787l-.392.13c-.553.2-1.569.216-2.746.098-.666-.063-1.376-.212-2.05-.263-.712-.1-1.435-.043-2.123.165.13-.456-.502-.515-.337-.956 1.089-.194 2.202-.194 3.29 0 .899.098 1.695.366 2.515.342.49-.008 1.306-.228 1.843-.303z" clip-rule="evenodd"/>
    <path stroke="#231F20" stroke-miterlimit="2.61" stroke-width=".64" d="M58.344 46.962v.787l-.392.13c-.553.2-1.569.216-2.746.098-.666-.063-1.376-.212-2.05-.263-.712-.1-1.435-.043-2.123.165.13-.456-.502-.515-.337-.956 1.089-.194 2.202-.194 3.29 0 .899.098 1.695.366 2.515.342.49-.008 1.306-.228 1.843-.303z"/>
    <path fill="#231F20" d="M254.034 63.411h-2.278v-7.24h-2.029v8.94h4.307v-1.7zm-9.897-5.473l.957 3.063h-1.915l.958-3.063zm1.445 4.657l.814 2.525h2.201l-3.178-8.95h-2.508l-3.216 8.94h2.154l.823-2.525 2.91.01zm-8.692-2.362c-.235.016-.472.016-.708 0h-1.11v-2.487h1.818c.286.05.544.2.73.424.187.223.289.504.289.795 0 .291-.102.572-.289.795-.186.224-.444.374-.73.425v.048zm.699-3.995c-.442-.049-.886-.071-1.33-.067h-3.217v8.94h2.03v-3.265h1.187c.444.004.888-.019 1.33-.067.678-.08 1.303-.407 1.756-.919.453-.511.704-1.172.704-1.856 0-.685-.251-1.346-.704-1.857-.453-.512-1.078-.838-1.756-.919v.01zm-6.566 8.873v-8.95h-2.049v8.95h2.049zm-7.61-9.123c-2.451 0-4.365 1.69-4.365 4.706 0 3.015 1.809 4.6 4.25 4.6 2.269 0 3.829-1.182 4.011-3.208v-.125h-2.03v.125c-.034.478-.254.924-.611 1.241-.358.318-.826.482-1.303.459-1.216 0-2.192-.96-2.192-3.217 0-1.978.957-3.083 2.211-3.083.463-.035.921.112 1.278.41.358.297.586.721.637 1.184v.135h2.029v-.135c-.163-1.747-1.446-3.082-3.915-3.082v-.01zm-5.925 9.123v-8.95h-2.03v8.95h2.03zm-4.049 0v-8.95h-2.011v3.985c0 .663 0 1.671.058 2.602l-3.59-6.587h-2.594v8.95h2.03V61.27c0-.653 0-1.566-.077-2.516l3.484 6.405 2.7-.048zm-9.984-8.95h-2.01v5.474c.016.198.016.397 0 .595-.046.437-.251.841-.576 1.135-.326.294-.748.457-1.186.457-.437 0-.86-.163-1.185-.457-.325-.294-.53-.698-.576-1.135-.011-.198-.011-.397 0-.595V56.16h-2.01v6.319c.115 1.507 1.168 2.813 3.771 2.813 2.604 0 3.667-1.306 3.762-2.813v-1.143l.01-5.176zm-9.486 0h-3.102l-1.837 7.03-1.8-7.02h-3.178v8.94h2.029v-3.966-2.958c.163.96.46 2.084.709 2.948l1.148 3.976h2.144l1.13-3.976c.258-.864.555-2.035.737-2.957v6.933h2.029l-.009-8.95zm-22.677 1.767l.958 3.063h-1.915l.957-3.063zm1.446 4.657l.813 2.526h2.202l-3.255-8.94h-2.508l-3.177 8.94h2.153l.833-2.526h2.939zm-11.726-2.468v-2.362H162.821c.66.077 1.139.336 1.139 1.152 0 .817-.555 1.105-1.216 1.172h-1.732v.038zm4.652 2.785c.019-.445-.101-.885-.343-1.258-.242-.374-.594-.662-1.007-.826.508-.097.966-.373 1.29-.778.324-.404.495-.911.481-1.43 0-1.565-1.072-2.218-2.364-2.372-.449-.048-.899-.07-1.35-.067h-3.389v8.94h2.03v-3.515h1.512c.68.058 1.053.624 1.168 1.604.057.656.198 1.301.421 1.92h2.211c-.39-.675-.604-1.438-.622-2.218h-.038zm-8.519-6.722h-2.02v5.474c.011.198.011.397 0 .595-.055.431-.265.827-.59 1.114-.325.288-.743.446-1.176.446-.433 0-.852-.158-1.177-.446-.325-.287-.534-.683-.589-1.114V56.18h-2.02V62.5c.115 1.508 1.158 2.813 3.771 2.813 2.614 0 3.657-1.305 3.762-2.813v-1.143l.039-5.176zm-8.615 1.585V56.18h-7.955v1.585h2.968v7.346h2.019v-7.366l2.968.02zm-9.084 7.346v-8.95h-2.03v8.95h2.03zm-3.657-1.594h-4.585v-2.103h4.164v-1.575h-4.164v-2.093h4.461V56.16h-6.49v8.95h6.614v-1.594zm-12.53-5.762h4.461v-1.584h-6.49v8.94h2.029v-3.697h4.04v-1.575h-4.04v-2.084zm-3.647 5.762h-4.547v-2.103h4.164v-1.575h-4.164v-2.093h4.461V56.16h-6.528v8.95h6.614v-1.594zm-13.344-3.4v-2.362h1.819c.661.077 1.139.336 1.139 1.152 0 .817-.555 1.105-1.215 1.172h-1.743v.038zm4.653 2.785c.019-.445-.101-.885-.343-1.258-.242-.374-.594-.662-1.007-.826.508-.097.965-.373 1.29-.778.324-.404.495-.911.481-1.43 0-1.565-1.082-2.218-2.374-2.372-.445-.048-.893-.07-1.34-.067h-3.389v8.94h2.029v-3.515h1.513c.67.058 1.053.624 1.168 1.604.056.656.198 1.301.421 1.92h2.211c-.408-.669-.636-1.434-.66-2.218zm-11.171-2.67c-.24.017-.48.017-.718 0H97.94v-2.486h1.828c.285.05.544.2.73.424.186.223.288.504.288.795 0 .291-.102.572-.288.795-.186.224-.445.374-.73.425l-.02.048zm.699-3.994c-.445-.048-.893-.07-1.34-.067H95.92v8.94h2.03v-3.265h1.186c.448.003.895-.019 1.34-.067.665-.097 1.274-.43 1.714-.94.44-.51.682-1.161.682-1.835 0-.675-.242-1.326-.682-1.836-.44-.51-1.049-.843-1.714-.94l-.028.01z"/>
    <path fill="#2E3192" d="M175.437 53.3h-84.13v1.056h84.13V53.3z"/>
    <path fill="#FFF200" d="M175.437 52.234h-84.13v1.056h84.13v-1.056zM259.567 52.234h-84.13v1.056h84.13v-1.056z"/>
    <path fill="#00A651" d="M175.437 51.178h-84.13v1.056h84.13v-1.056zM259.567 51.178h-84.13v1.056h84.13v-1.056z"/>
    <path fill="#2E3192" d="M259.567 53.3h-84.13v1.056h84.13V53.3z"/>
    <path fill="#231F20" d="M238.728 43.774c-.191-.345-.327-.717-.402-1.104-.048-.317.134-.567.527-.75l4.642-2.525c.107-.049.223-.075.34-.075.117 0 .233.026.34.075.279.148.499.39.622.682.2.352.448.676.737.96.32.329.676.619 1.063.864.405.258.838.467 1.292.624.443.156.909.237 1.378.24.752.034 1.499-.146 2.154-.518.263-.148.48-.367.627-.631.147-.264.218-.565.206-.867.003-.433-.15-.852-.431-1.181-.362-.383-.782-.707-1.244-.96-.556-.336-1.245-.682-2.049-1.066-.804-.384-1.752-.826-2.795-1.345-1.126-.515-2.19-1.16-3.168-1.92-.74-.597-1.385-1.303-1.915-2.093-.451-.707-.775-1.487-.957-2.305-.187-.838-.28-1.695-.278-2.554-.016-1.163.227-2.314.71-3.37.484-1.057 1.196-1.992 2.085-2.738.936-.772 2.007-1.362 3.159-1.738 1.311-.427 2.681-.638 4.059-.624.963 0 1.924.087 2.872.26.949.174 1.873.471 2.747.883.907.435 1.748.998 2.498 1.67.821.748 1.516 1.623 2.058 2.593.206.347.34.733.393 1.134.013.162-.031.323-.126.456-.095.132-.234.225-.391.264l-4.059 2.035c-.27.143-.579.194-.881.145-.314-.128-.579-.354-.756-.644-.409-.578-.973-1.027-1.627-1.296-.688-.3-1.432-.45-2.182-.442-.385.001-.769.033-1.149.096-.333.041-.657.139-.957.288-.242.119-.452.293-.613.51-.154.21-.235.467-.23.729-.001.233.051.463.153.672.122.257.298.483.517.663.312.273.652.51 1.015.71.528.289 1.071.548 1.627.778 1.385.556 2.734 1.198 4.04 1.92 1.102.597 2.12 1.34 3.025 2.21.837.79 1.498 1.75 1.937 2.816.439 1.066.646 2.214.609 3.367.014 1.284-.25 2.555-.776 3.726-.511 1.107-1.255 2.09-2.182 2.88-.981.854-2.12 1.506-3.35 1.921-2.477.817-5.137.897-7.658.23-1.049-.283-2.056-.703-2.996-1.248-.891-.525-1.706-1.171-2.422-1.92-.69-.718-1.277-1.529-1.742-2.41l-.096-.077zM216.492 20.41c-.017-.12-.007-.241.031-.356.037-.114.1-.218.185-.304.084-.086.188-.15.301-.19.114-.038.235-.05.354-.034h17.603c.546 0 .804.298.804.884v5.54c0 .577-.258.874-.804.874h-10.902v3.841h8.136c.24-.012.476.067.66.221.093.09.163.2.208.322.045.12.062.25.051.38V37.1c0 .576-.319.864-.957.864h-8.137v4.072h11.123c.555 0 .823.288.823.864v5.358c0 .576-.268.874-.823.874h-17.881c-.118.016-.238.004-.351-.034-.113-.038-.215-.102-.299-.187-.085-.084-.148-.187-.187-.3-.038-.114-.049-.234-.034-.353l.096-27.847zm-17.929 6.414v5.762h3.609c.329.001.654-.064.957-.192.292-.126.555-.309.776-.538.217-.226.386-.494.497-.787.117-.307.175-.633.173-.96v-.807c.005-.329-.054-.655-.173-.96-.111-.296-.281-.564-.5-.79-.219-.227-.482-.406-.773-.526-.303-.128-.628-.193-.957-.192l-3.609-.01zm-7.476-6.414c-.017-.12-.007-.241.031-.356.037-.114.101-.218.185-.304.085-.086.188-.15.302-.19.113-.038.234-.05.354-.034h11.084c2.463-.028 4.839.91 6.624 2.612.811.803 1.461 1.755 1.914 2.804.467 1.062.705 2.21.699 3.37v2.056c.002.758-.111 1.512-.335 2.237-.237.736-.558 1.441-.957 2.103-.404.688-.879 1.332-1.417 1.92-.54.571-1.137 1.086-1.78 1.537l1.082 1.642 3.828 8.517c.038.092.058.19.058.289 0 .099-.02.196-.058.288-.057.192-.239.297-.526.297h-7.17c-.214.02-.427-.045-.593-.182-.17-.188-.297-.41-.373-.653l-3.389-8.642h-2.144v8.594c.015.23-.042.457-.163.653-.077.08-.172.141-.276.18-.105.038-.216.052-.327.04h-5.829c-.119.018-.24.008-.355-.03-.114-.038-.218-.101-.303-.186-.085-.085-.15-.188-.189-.302-.038-.114-.05-.236-.034-.355l.057-27.905zm-23.806 0c-.017-.119-.006-.24.031-.353.037-.114.099-.217.183-.303.083-.085.185-.15.297-.19.113-.04.233-.052.351-.038h17.613c.536 0 .804.298.804.884v5.54c0 .577-.268.874-.804.874h-10.903v3.841h8.175c.24-.012.475.067.66.221.089.093.157.203.2.324.043.12.06.25.049.377V37.1c0 .576-.306.864-.909.864h-8.137v4.072h11.114c.115-.015.232-.003.342.036.11.038.21.102.29.186.081.084.142.186.176.297.035.112.043.23.024.345v5.358c0 .576-.277.874-.832.874h-17.958c-.118.016-.237.005-.35-.033-.113-.039-.215-.103-.298-.188-.084-.084-.147-.188-.184-.301-.037-.113-.047-.234-.029-.352l.095-27.847zm-3.924 21.884c.593.288.699.807.316 1.556-.515.99-1.158 1.907-1.915 2.727-.697.733-1.497 1.36-2.374 1.863-.86.495-1.789.861-2.756 1.085-1.001.234-2.026.35-3.054.346-1.658.012-3.305-.275-4.863-.846-1.419-.526-2.72-1.329-3.828-2.362-1.094-1.02-1.961-2.26-2.547-3.64-.643-1.47-.97-3.06-.957-4.666v-7.816c-.011-1.628.315-3.24.957-4.735.585-1.404 1.451-2.672 2.547-3.725 1.107-1.051 2.407-1.876 3.828-2.43 1.547-.589 3.189-.885 4.844-.874 1.034-.002 2.066.117 3.073.356.964.232 1.892.597 2.756 1.085.888.495 1.692 1.127 2.384 1.872.755.821 1.398 1.738 1.914 2.727.189.283.277.621.249.96-.011.107-.05.21-.112.297s-.145.157-.242.203l-4.47 2.199c-.206.099-.432.148-.661.144-.116-.016-.226-.061-.32-.132-.094-.07-.168-.164-.216-.271-.419-.71-.999-1.308-1.694-1.748-.673-.414-1.45-.627-2.24-.615-.679-.007-1.352.12-1.981.375-.588.237-1.12.592-1.566 1.043-.446.45-.796.988-1.028 1.578-.254.635-.381 1.314-.374 1.998v6.923c-.009.69.118 1.376.374 2.017.237.588.588 1.123 1.033 1.575.451.438.98.787 1.561 1.027.63.25 1.303.377 1.981.375.791.003 1.572-.181 2.278-.538.739-.412 1.321-1.056 1.656-1.834.084-.181.235-.323.421-.394.116-.032.238-.04.356-.021.119.018.233.061.334.127l4.336 2.19zm-38.394-4.168h5.092l-1.914-7.682-.642-3.61-.66 3.61-1.876 7.682zm15.736 10.15c.201.577 0 .874-.516.874h-6.423c-.262.01-.52-.064-.737-.21-.228-.156-.386-.393-.441-.663l-.766-3.035h-8.614l-.738 3.035c-.062.267-.218.502-.44.662-.211.145-.462.218-.718.211h-6.538c-.555 0-.727-.297-.516-.873l8.758-27.848c.058-.261.206-.494.418-.657.211-.164.474-.247.74-.236h6.519c.267-.011.529.072.741.236.211.163.359.396.417.657l8.854 27.848zm-9.122-30.325l-7.179.96c-.123.003-.243-.038-.339-.115-.097-.077-.163-.186-.187-.307l-.173-.758c0-.23.106-.356.326-.423l6.825-2.132c.22-.067.469.192.517.432l.43 1.92c.003.088-.029.174-.088.238-.059.065-.14.104-.228.109l.096.076zm-18.599 24.266c.594.288.699.807.307 1.556-.515.99-1.158 1.907-1.915 2.727-.693.733-1.49 1.36-2.364 1.863-.861.496-1.79.861-2.757 1.085-1.001.233-2.026.35-3.053.346-1.659.013-3.306-.273-4.863-.845-1.421-.522-2.723-1.326-3.829-2.363-1.096-1.02-1.967-2.26-2.556-3.639-.64-1.472-.965-3.061-.957-4.667v-7.74c-.006-1.627.32-3.238.957-4.734.588-1.405 1.458-2.673 2.556-3.725 1.105-1.055 2.406-1.88 3.829-2.43 2.531-.95 5.284-1.13 7.916-.518.965.232 1.892.597 2.757 1.085.886.493 1.687 1.125 2.374 1.872.751.824 1.395 1.74 1.914 2.727.184.285.272.622.249.96-.013.107-.052.208-.114.295-.062.087-.144.158-.24.205l-4.47 2.199c-.209.1-.439.15-.67.144-.116-.016-.227-.061-.32-.132-.094-.07-.169-.164-.216-.271-.413-.71-.991-1.31-1.685-1.748-.677-.414-1.457-.627-2.249-.615-.679-.006-1.352.121-1.982.375-.587.237-1.12.592-1.566 1.043-.446.45-.796.988-1.028 1.578-.25.637-.376 1.314-.373 1.998v6.923c-.005.69.122 1.375.373 2.017.237.588.589 1.123 1.034 1.575.473.435 1.025.774 1.627.998.631.25 1.303.377 1.982.375.791.004 1.572-.18 2.278-.538.742-.407 1.326-1.053 1.656-1.834.042-.091.102-.173.176-.24.074-.068.16-.12.254-.154.116-.031.238-.038.356-.02.119.018.232.061.334.126l4.278 2.141zM230.467 17.175v.797h-3.024c.038-.303.139-.594.296-.855.272-.401.594-.766.958-1.085.261-.223.502-.47.718-.74.111-.153.174-.337.181-.527.006-.081-.006-.163-.034-.239-.028-.076-.072-.145-.128-.203-.055-.056-.121-.1-.193-.128-.073-.028-.151-.04-.229-.035-.079-.004-.158.009-.232.037-.074.028-.141.07-.198.126-.123.155-.187.349-.182.547l-.862-.086c.005-.195.05-.387.132-.564.083-.177.201-.335.347-.464.295-.21.652-.319 1.015-.307.38-.023.755.104 1.043.355.125.114.224.254.29.41.066.155.098.324.093.493-.001.197-.037.392-.105.576-.091.206-.207.4-.345.576-.175.205-.364.397-.565.576-.183.155-.355.322-.517.5-.069.073-.13.153-.182.24h1.723zM232.506 13.45c.195-.01.389.027.567.107.178.08.335.201.457.353.339.552.493 1.198.441 1.844.056.644-.102 1.29-.45 1.834-.12.153-.275.275-.451.355-.177.08-.37.116-.564.106-.202.007-.404-.034-.587-.121-.183-.087-.343-.217-.466-.379-.32-.544-.461-1.176-.402-1.805-.056-.643.098-1.287.441-1.834.12-.152.275-.273.452-.353.176-.08.369-.117.562-.108zm0 .71c-.102 0-.201.037-.277.105-.1.095-.167.22-.192.356-.07.373-.099.753-.086 1.133-.017.363.009.727.077 1.085.03.15.099.289.201.403.08.06.177.093.277.096.103 0 .201-.038.278-.105.099-.096.167-.22.191-.356.071-.37.1-.747.086-1.123.017-.367-.009-.734-.076-1.095-.032-.146-.102-.282-.201-.394-.077-.068-.175-.105-.278-.105zM237.455 17.174v.797h-3.025c.033-.308.131-.606.287-.873.272-.402.594-.766.958-1.085.261-.224.502-.472.718-.74.111-.154.174-.338.181-.528.006-.08-.006-.162-.034-.238-.028-.076-.072-.146-.128-.204-.055-.056-.121-.099-.193-.127-.073-.028-.151-.04-.228-.036-.08-.003-.158.01-.233.037-.074.028-.141.071-.198.126-.123.156-.187.35-.182.548l-.862-.087c.005-.195.05-.387.132-.564.083-.177.201-.334.347-.463.296-.211.652-.32 1.015-.307.38-.024.755.104 1.043.355.125.114.224.253.29.409.066.156.098.324.093.493.001.198-.038.394-.115.577-.083.21-.199.404-.344.576-.169.207-.355.4-.556.576-.183.155-.355.322-.517.5-.069.072-.13.153-.181.24l1.732.018zM240.241 17.972h-.862v-3.256c-.316.3-.696.523-1.11.653v-.778c.263-.1.509-.243.727-.422.247-.183.436-.433.546-.72h.699v4.523zM241.255 18.058l1.111-4.657h.651l-1.13 4.657h-.632zM246.204 17.175v.797h-3.025c.038-.303.139-.594.297-.855.272-.401.593-.766.957-1.085.262-.223.502-.47.718-.74.112-.153.175-.337.182-.527.009-.162-.046-.32-.153-.442-.119-.106-.272-.164-.431-.164-.158 0-.312.058-.431.164-.122.155-.187.349-.181.547l-.862-.086c.005-.195.05-.387.132-.564.082-.177.2-.335.347-.464.296-.21.652-.317 1.014-.307.381-.023.756.104 1.044.355.125.114.224.254.29.41.066.155.098.324.093.493-.001.197-.037.392-.106.576-.09.206-.206.4-.344.576-.175.205-.364.397-.565.576-.183.155-.356.322-.517.5-.07.073-.131.153-.182.24h1.723zM248.224 13.45c.195-.01.389.027.567.107.178.08.334.201.457.353.338.552.492 1.198.44 1.844.056.644-.102 1.29-.45 1.834-.119.153-.274.275-.451.355-.176.08-.37.116-.563.106-.203.007-.404-.035-.587-.122-.183-.087-.343-.216-.466-.378-.321-.544-.461-1.176-.402-1.805-.057-.643.098-1.287.44-1.834.121-.152.276-.273.452-.353.177-.08.369-.117.563-.108zm0 .71c-.102.002-.2.039-.278.105-.099.095-.166.22-.191.356-.071.373-.1.753-.086 1.133-.013.363.013.727.076 1.085.03.15.1.289.201.403.081.06.178.093.278.096.102 0 .201-.038.277-.105.1-.096.167-.22.192-.356.07-.37.099-.747.086-1.123.016-.367-.009-.734-.077-1.095-.024-.15-.094-.287-.201-.394-.076-.068-.175-.105-.277-.105zM253.173 17.175v.797h-3.025c.038-.303.139-.594.297-.855.271-.401.593-.766.957-1.085.262-.223.502-.47.718-.74.111-.153.174-.337.182-.527.005-.081-.007-.163-.035-.239-.028-.076-.072-.145-.128-.203-.055-.056-.12-.1-.193-.128-.073-.028-.151-.04-.228-.035-.079-.004-.158.009-.232.037-.074.028-.142.07-.199.126-.123.155-.187.349-.182.547l-.861-.086c.004-.195.049-.387.131-.564.083-.177.201-.335.347-.464.296-.21.652-.319 1.015-.307.381-.023.755.104 1.043.355.125.114.224.254.29.41.066.155.098.324.093.493-.001.197-.036.392-.105.576-.091.206-.206.4-.345.576-.175.205-.363.397-.565.576-.183.155-.355.322-.516.5-.07.073-.131.153-.182.24h1.723zM255.441 17.972v-.874h-1.838v-.759l1.915-2.88h.727v2.88h.555v.759h-.555V18l-.804-.028zm0-1.662v-1.545l-1.034 1.546h1.034z"/>
</svg>
